<svg width="25" height="26" viewBox="0 0 25 26" fill="none" xmlns="http://www.w3.org/2000/svg">
<path fill-rule="evenodd" clip-rule="evenodd" d="M6.68744 5.53132C6.46529 5.32432 6.17146 5.21162 5.86787 5.21698C5.56427 5.22234 5.27461 5.34532 5.0599 5.56003C4.84519 5.77474 4.72221 6.0644 4.71685 6.368C4.71149 6.67159 4.82418 6.96542 5.03119 7.18757L10.8437 13.0001L5.03119 18.8126C4.91605 18.9199 4.8237 19.0492 4.75965 19.193C4.6956 19.3367 4.66116 19.4919 4.65839 19.6492C4.65561 19.8066 4.68455 19.9629 4.74349 20.1088C4.80243 20.2547 4.89016 20.3873 5.00144 20.4986C5.11272 20.6098 5.24527 20.6976 5.39119 20.7565C5.53711 20.8154 5.6934 20.8444 5.85075 20.8416C6.0081 20.8388 6.16328 20.8044 6.30703 20.7403C6.45077 20.6763 6.58015 20.584 6.68744 20.4688L12.4999 14.6563L18.3124 20.4688C18.4197 20.584 18.5491 20.6763 18.6928 20.7403C18.8366 20.8044 18.9918 20.8388 19.1491 20.8416C19.3065 20.8444 19.4628 20.8154 19.6087 20.7565C19.7546 20.6976 19.8872 20.6098 19.9984 20.4986C20.1097 20.3873 20.1974 20.2547 20.2564 20.1088C20.3153 19.9629 20.3443 19.8066 20.3415 19.6492C20.3387 19.4919 20.3043 19.3367 20.2402 19.193C20.1762 19.0492 20.0838 18.9199 19.9687 18.8126L14.1562 13.0001L19.9687 7.18757C20.1757 6.96542 20.2884 6.67159 20.283 6.368C20.2777 6.0644 20.1547 5.77474 19.94 5.56003C19.7253 5.34532 19.4356 5.22234 19.132 5.21698C18.8284 5.21162 18.5346 5.32432 18.3124 5.53132L12.4999 11.3438L6.68744 5.53132Z" fill="white"/>
</svg>
