<svg width="234" height="50" viewBox="0 0 234 50" fill="none" xmlns="http://www.w3.org/2000/svg">
<path d="M75.0647 12.003H73.8302C73.5216 12.003 73.2722 12.241 73.2722 12.5355V17.4797H61.3538V12.5355C61.3538 12.241 61.1043 12.003 60.7957 12.003H59.558C59.2494 12.003 59 12.241 59 12.5355V24.4646C59 24.7591 59.2494 24.997 59.558 24.997H60.7926C61.1012 24.997 61.3506 24.7591 61.3506 24.4646V19.7405H73.269V24.4646C73.269 24.7591 73.5184 24.997 73.8271 24.997H75.0616C75.3703 24.997 75.6197 24.7591 75.6197 24.4646V12.5355C75.6197 12.241 75.3703 12.003 75.0616 12.003H75.0647Z" fill="white"/>
<path d="M90.1132 12.2796C90.0134 12.1101 89.8264 12.003 89.6237 12.003H88.1024C87.8997 12.003 87.7095 12.1101 87.6129 12.2796L80.7449 24.2087C80.6514 24.3753 80.6545 24.5746 80.7543 24.7382C80.854 24.8989 81.038 25 81.2344 25H82.6466C82.8493 25 83.0394 24.8929 83.1361 24.7233L88.8537 14.7725L94.5869 24.7233C94.6866 24.8929 94.8737 25 95.0763 25H96.4886C96.685 25 96.8689 24.9018 96.9687 24.7382C97.0684 24.5746 97.0716 24.3753 96.978 24.2087L90.1101 12.2796H90.1132Z" fill="white"/>
<path d="M113.86 12.003H98.7644C98.5056 12.003 98.2812 12.1725 98.2219 12.4105L97.9164 13.6064C97.8759 13.7641 97.9164 13.9336 98.0193 14.0616C98.1253 14.1895 98.2874 14.2638 98.4589 14.2638H104.981V24.4645C104.981 24.759 105.23 24.997 105.539 24.997H106.773C107.082 24.997 107.331 24.759 107.331 24.4645V14.2638H113.551C113.81 14.2638 114.034 14.0943 114.093 13.8563L114.399 12.6604C114.439 12.5027 114.399 12.3332 114.296 12.2053C114.19 12.0773 114.028 12.003 113.856 12.003H113.86Z" fill="white"/>
<path d="M134.463 13.3506C134.039 12.9311 133.531 12.6009 132.951 12.3629C132.372 12.1249 131.748 12.003 131.103 12.003H119.783C119.474 12.003 119.225 12.241 119.225 12.5355V13.7284C119.225 14.0229 119.474 14.2609 119.783 14.2609H131.103C131.427 14.2609 131.739 14.3204 132.026 14.4394C132.315 14.5584 132.571 14.7249 132.786 14.9362C133.008 15.1503 133.182 15.4002 133.307 15.6799C133.432 15.9535 133.494 16.257 133.494 16.5783C133.494 16.8995 133.432 17.1941 133.307 17.4796C133.179 17.7652 133.008 18.0151 132.792 18.2233C132.574 18.4316 132.312 18.6011 132.019 18.7291C131.732 18.854 131.43 18.9135 131.103 18.9135H119.783C119.474 18.9135 119.225 19.1515 119.225 19.446V24.4645C119.225 24.759 119.474 24.997 119.783 24.997H121.017C121.326 24.997 121.576 24.759 121.576 24.4645V21.1595H127.147L132.524 24.8959C132.621 24.9613 132.736 24.997 132.855 24.997H134.894C135.137 24.997 135.349 24.8483 135.424 24.6281C135.499 24.408 135.417 24.167 135.221 24.0332L131.097 21.1565H131.1C131.745 21.1565 132.368 21.0346 132.948 20.7966C133.528 20.5586 134.036 20.2254 134.46 19.8089C134.881 19.3954 135.221 18.9076 135.467 18.3602C135.717 17.8069 135.845 17.206 135.845 16.5812C135.845 15.9565 135.717 15.3556 135.467 14.7993C135.221 14.2519 134.881 13.7641 134.46 13.3506H134.463Z" fill="white"/>
<path d="M156.86 13.1304C156.505 12.7794 156.081 12.4998 155.594 12.3005C155.108 12.1011 154.59 12 154.051 12H145.341C144.801 12 144.281 12.1011 143.797 12.2975C143.311 12.4968 142.887 12.7735 142.532 13.1275C142.183 13.4725 141.902 13.8801 141.696 14.3382C141.487 14.8023 141.384 15.2961 141.384 15.8108V21.1863C141.384 21.7098 141.49 22.2126 141.699 22.6767C141.905 23.1348 142.189 23.5394 142.538 23.8785C142.89 24.2236 143.317 24.4973 143.801 24.6966C144.284 24.8959 144.804 24.997 145.344 24.997H154.054C154.594 24.997 155.114 24.8959 155.597 24.6995C156.081 24.5032 156.505 24.2265 156.857 23.8815C157.209 23.5394 157.49 23.1348 157.695 22.6767C157.904 22.2126 158.01 21.7128 158.01 21.1863V15.8108C158.01 15.2961 157.904 14.8023 157.695 14.3382C157.49 13.8831 157.209 13.4755 156.86 13.1275V13.1304ZM155.675 15.8137V21.1892C155.675 21.4034 155.635 21.6027 155.551 21.7931C155.466 21.9865 155.351 22.1501 155.205 22.2899C155.058 22.4297 154.88 22.5458 154.675 22.632C154.475 22.7153 154.272 22.757 154.051 22.757H145.341C145.119 22.757 144.923 22.7183 144.73 22.635C144.53 22.5487 144.352 22.4327 144.206 22.2929C144.059 22.1531 143.947 21.9895 143.86 21.7961C143.776 21.6057 143.735 21.4094 143.735 21.1952V15.8197C143.735 15.6055 143.776 15.4092 143.86 15.2158C143.944 15.0224 144.059 14.8588 144.206 14.719C144.352 14.5792 144.521 14.4691 144.72 14.3888C144.914 14.3085 145.116 14.2698 145.338 14.2698H154.048C154.272 14.2698 154.478 14.3085 154.681 14.3888C154.883 14.4721 155.055 14.5792 155.201 14.719C155.348 14.8588 155.46 15.0224 155.547 15.2158C155.632 15.4062 155.672 15.6025 155.672 15.8197L155.675 15.8137Z" fill="white"/>
<path d="M180.706 12.003H179.472C179.163 12.003 178.914 12.241 178.914 12.5355V21.7872L166.792 12.1249C166.693 12.0446 166.565 12 166.434 12H165.199C164.891 12 164.641 12.238 164.641 12.5325V24.4616C164.641 24.7561 164.891 24.994 165.199 24.994H166.434C166.743 24.994 166.992 24.7561 166.992 24.4616V15.2098L179.113 24.8721C179.213 24.9524 179.341 24.997 179.472 24.997H180.706C181.015 24.997 181.264 24.759 181.264 24.4645V12.5355C181.264 12.241 181.015 12.003 180.706 12.003Z" fill="white"/>
<path d="M189.688 12.003H188.453C188.145 12.003 187.895 12.2414 187.895 12.5355V24.4675C187.895 24.7616 188.145 25 188.453 25H189.688C189.996 25 190.246 24.7616 190.246 24.4675V12.5355C190.246 12.2414 189.996 12.003 189.688 12.003Z" fill="white"/>
<path d="M205.497 18.6041L212.932 12.9549C213.119 12.8151 213.191 12.5771 213.113 12.3629C213.035 12.1487 212.823 12.006 212.586 12.006H210.6C210.473 12.006 210.351 12.0476 210.251 12.122L203.196 17.5005H199.228L199.212 12.5355C199.212 12.241 198.963 12.003 198.654 12.003H197.438C197.129 12.003 196.88 12.241 196.88 12.5355V24.4645C196.88 24.759 197.129 24.997 197.438 24.997H198.654C198.963 24.997 199.212 24.759 199.212 24.4645L199.228 19.7405H203.202L210.261 24.887C210.357 24.9584 210.479 24.997 210.6 24.997H212.586C212.826 24.997 213.038 24.8513 213.116 24.6341C213.194 24.4169 213.116 24.1789 212.926 24.0391L205.5 18.6011L205.497 18.6041Z" fill="white"/>
<path d="M233.935 24.2087L227.067 12.2796C226.967 12.1101 226.78 12.003 226.578 12.003H225.056C224.854 12.003 224.664 12.1101 224.567 12.2796L217.699 24.2087C217.605 24.3753 217.609 24.5746 217.708 24.7382C217.808 24.8989 217.992 25 218.188 25H219.601C219.803 25 219.994 24.8929 220.09 24.7233L225.808 14.7725L231.541 24.7233C231.641 24.8929 231.828 25 232.03 25H233.443C233.639 25 233.823 24.9018 233.923 24.7382C234.023 24.5746 234.026 24.3753 233.932 24.2087H233.935Z" fill="white"/>
<path d="M59 37.8051V31.2034H64.5294V32.1864H59.9116V33.8898H63.1215V34.8729H59.9116V36.8136H64.7441V37.7966H59.0035L59 37.8051Z" fill="#1EE600"/>
<path d="M77.7246 37.8051L73.5292 32.3898V37.8051H72.6211V31.2034H73.7509L77.9393 36.6186V31.2034H78.8474V37.8051H77.7246Z" fill="#1EE600"/>
<path d="M87.1889 37.8051V31.2034H92.7183V32.1864H88.1005V33.8898H91.3105V34.8729H88.1005V36.8136H92.933V37.7966H87.1925L87.1889 37.8051Z" fill="#1EE600"/>
<path d="M105.977 37.8051L104.492 35.2881H101.722V37.8051H100.814V31.2034H105.136C105.716 31.2034 106.17 31.3898 106.494 31.7585C106.818 32.1314 106.984 32.6356 106.984 33.2797C106.984 33.572 106.948 33.8305 106.878 34.0551C106.808 34.2797 106.709 34.4746 106.579 34.6356C106.449 34.7966 106.297 34.928 106.125 35.0212C105.952 35.1186 105.762 35.1864 105.562 35.2288L107.029 37.8008H105.977V37.8051ZM104.998 34.3051C105.343 34.3051 105.604 34.2161 105.783 34.0424C105.963 33.8686 106.051 33.6144 106.051 33.2839C106.051 32.5551 105.671 32.1907 104.914 32.1907H101.718V34.3051H104.998Z" fill="#1EE600"/>
<path d="M121.682 34.4068C121.682 34.9407 121.597 35.428 121.432 35.8729C121.266 36.3136 121.03 36.6949 120.728 37.0085C120.425 37.322 120.059 37.5678 119.626 37.7415C119.193 37.9153 118.715 38 118.183 38C117.704 38 117.257 37.9195 116.842 37.7627C116.427 37.6059 116.071 37.3898 115.769 37.1144C115.036 36.4449 114.67 35.572 114.67 34.5C114.67 33.428 115.04 32.5678 115.783 31.8941C116.096 31.6017 116.462 31.3814 116.881 31.2288C117.3 31.0763 117.761 31 118.26 31C118.876 31 119.426 31.1271 119.908 31.3814C120.39 31.6356 120.83 32.0424 121.228 32.5932L120.379 33.1017C120.101 32.7415 119.785 32.4703 119.429 32.2797C119.074 32.0932 118.658 31.9958 118.183 31.9958C117.838 31.9958 117.518 32.0508 117.219 32.161C116.92 32.2712 116.656 32.4237 116.434 32.6186C115.888 33.1059 115.617 33.7288 115.617 34.4958C115.617 34.8602 115.677 35.1949 115.8 35.5042C115.92 35.8093 116.096 36.0763 116.318 36.2966C116.543 36.5169 116.814 36.6907 117.127 36.8136C117.44 36.9364 117.796 36.9958 118.183 36.9958C118.778 36.9958 119.278 36.8517 119.679 36.5593C120.08 36.2669 120.369 35.8432 120.545 35.2924H117.993V34.3093H121.682V34.411V34.4068Z" fill="#1EE600"/>
<path d="M132.001 35.1992V37.8051H131.093V35.1992L128.094 31.2076H129.224L131.558 34.2881L133.874 31.2076H135L132.001 35.1992Z" fill="#1EE600"/>
<path d="M39.7467 16.6903L27.8149 10.0763C27.4242 9.85828 26.9389 10.1337 26.9389 10.5698V18.4079C26.9389 18.7216 26.6746 18.9779 26.3471 18.9741L24.974 18.9626H24.9108L23.6955 18.9741C23.3681 18.9741 23.1037 18.7216 23.1037 18.4079V10.5736C23.1037 10.1375 22.6184 9.8621 22.2277 10.0801L10.2959 16.6942C10.1144 16.7936 10 16.9849 10 17.1876V33.7131C10 33.9196 10.1184 34.1109 10.3038 34.2104L22.2396 40.5183C22.6302 40.7249 23.1076 40.4495 23.1076 40.021V32.5578C23.1076 32.2441 23.3681 31.9917 23.6916 31.9878H26.355C26.6785 31.9878 26.9389 32.2441 26.9389 32.5578V40.0287C26.9389 40.461 27.4164 40.7326 27.807 40.526L39.7427 34.218C39.9321 34.1186 40.0466 33.9273 40.0466 33.7207V17.1876C40.0466 16.9849 39.9321 16.7974 39.7506 16.6942L39.7467 16.6903ZM36.4007 31.613C36.4007 31.8272 36.2824 32.0223 36.089 32.1217L31.4607 34.5699C31.0622 34.7803 30.5769 34.5011 30.5769 34.0612V29.05C30.5769 28.7287 30.3086 28.4724 29.9811 28.4685L25.0371 28.4571L20.0616 28.4685C19.7301 28.4685 19.4657 28.7287 19.4657 29.05V34.0535C19.4657 34.4934 18.9804 34.7727 18.5819 34.5623L13.9536 32.1141C13.7603 32.0108 13.6419 31.8157 13.6419 31.6053V19.238C13.6419 19.0314 13.7563 18.8363 13.9418 18.7331L18.5701 16.1663C18.9686 15.9444 19.4657 16.2236 19.4657 16.6712V21.9502C19.4657 22.2715 19.738 22.5316 20.0694 22.5316L24.9463 22.4934L29.9771 22.5354C30.3086 22.5354 30.5808 22.2791 30.5808 21.954V16.675C30.5808 16.2275 31.078 15.9482 31.4765 16.1701L36.1048 18.7369C36.2902 18.8402 36.4047 19.0314 36.4047 19.2418V31.6168L36.4007 31.613Z" fill="#1EE600"/>
<path d="M47.7036 32.9242L47.6878 13.9276C47.6878 12.8947 47.1196 11.9422 46.1963 11.4296L28.3578 1.4608L26.4402 0.385882C25.5169 -0.130538 24.3845 -0.126713 23.4612 0.385882L6.41572 9.94157C5.76074 9.51313 4.96765 9.26066 4.11932 9.26066C1.84659 9.26066 0 11.0509 0 13.2543C0 14.7959 0.907516 16.1348 2.22933 16.8004V36.0686C2.22933 37.1014 2.79751 38.054 3.72081 38.5704L15.2383 45.0008L15.5421 45.1729L23.4967 49.6141C24.42 50.1305 25.5524 50.1267 26.4757 49.6141L43.7618 39.9207C44.3813 40.2841 45.1073 40.4945 45.8807 40.4945C48.1534 40.4945 50 38.7043 50 36.5009C50 34.9325 49.0609 33.5783 47.7036 32.9242ZM4.97159 15.079C4.88873 15.1172 4.79798 15.1478 4.71118 15.1746H4.70328C4.62437 15.1976 4.54151 15.2129 4.45471 15.2282C4.43498 15.2282 4.4113 15.2358 4.39157 15.2358C4.30082 15.2473 4.21007 15.255 4.11932 15.255C4.02857 15.255 3.93387 15.2473 3.84312 15.2358C3.81945 15.2358 3.79972 15.2282 3.77604 15.2244C3.68924 15.2091 3.60638 15.1938 3.52352 15.167C3.52352 15.167 3.51563 15.167 3.51168 15.167C3.42488 15.1402 3.34202 15.1096 3.25916 15.0713C3.24338 15.0637 3.22364 15.056 3.20786 15.0484C3.12895 15.0101 3.05398 14.9719 2.98295 14.9222C2.98295 14.9222 2.98296 14.9222 2.97901 14.9222C2.90404 14.8724 2.82907 14.8189 2.76199 14.7577C2.75016 14.75 2.74227 14.7385 2.73043 14.7309C2.59627 14.6123 2.47396 14.4746 2.37532 14.3216C2.37137 14.3139 2.36742 14.3063 2.35953 14.2986C2.31218 14.2221 2.26484 14.1418 2.22933 14.0576C2.1149 13.809 2.05177 13.5374 2.05177 13.2505C2.05177 12.145 2.97901 11.246 4.11932 11.246C5.25963 11.246 6.18687 12.145 6.18687 13.2505C6.18687 13.3117 6.18292 13.3691 6.17898 13.4264C6.11979 14.0576 5.76073 14.6085 5.23596 14.9336C5.16099 14.9834 5.07813 15.0254 4.99527 15.0637C4.98738 15.0637 4.98343 15.0713 4.97554 15.0713L4.97159 15.079ZM41.7614 36.5009C41.7614 36.8834 41.8205 37.2506 41.9231 37.6026L25.9864 46.5385C25.367 46.8867 24.6015 46.8867 23.9781 46.5385L6.22238 36.6271C5.59896 36.279 5.21623 35.6363 5.21623 34.9401V17.1064C6.95234 16.6359 8.23075 15.0943 8.23075 13.262C8.23075 12.9445 8.18735 12.6384 8.11632 12.3439L23.9425 3.4691C24.562 3.121 25.3275 3.121 25.9509 3.4691L43.6908 13.3805C44.3142 13.7287 44.697 14.3713 44.697 15.0675L44.7088 32.6794C43.0043 33.169 41.7574 34.6991 41.7574 36.5085L41.7614 36.5009ZM46.3621 38.448C46.2871 38.4671 46.2121 38.4786 46.1372 38.49C46.1332 38.49 46.1293 38.49 46.1214 38.49C46.0425 38.4977 45.9596 38.5053 45.8807 38.5053C45.8097 38.5053 45.7386 38.5053 45.6716 38.4939C45.64 38.4939 45.6124 38.4862 45.5848 38.4824C45.5453 38.4786 45.5058 38.4709 45.4703 38.4671C45.4348 38.4594 45.4033 38.4518 45.3677 38.4403C45.3362 38.4327 45.3046 38.425 45.273 38.4174C45.2336 38.4059 45.1981 38.3906 45.1626 38.3791C45.1349 38.3715 45.1113 38.36 45.0837 38.3523C45.0402 38.3332 45.0008 38.3141 44.9613 38.2949C44.9416 38.2873 44.9258 38.2796 44.9061 38.2682C44.8587 38.2452 44.8153 38.2184 44.7719 38.1917C44.7601 38.184 44.7483 38.1764 44.7364 38.1687C44.6891 38.1381 44.6457 38.1037 44.5983 38.0693C44.5904 38.0654 44.5826 38.0578 44.5786 38.054C44.5313 38.0157 44.4839 37.9736 44.4405 37.9354C44.4405 37.9354 44.4366 37.9315 44.4326 37.9277C44.0617 37.572 43.825 37.0785 43.8171 36.5315C43.8171 36.52 43.8171 36.5123 43.8171 36.5009C43.8171 35.8161 44.1761 35.2079 44.7206 34.8483C44.7956 34.7986 44.8785 34.7527 44.9613 34.7144C44.9771 34.7068 44.9929 34.6991 45.0087 34.6915C45.0915 34.6532 45.1784 34.6188 45.2652 34.592C45.352 34.5652 45.4427 34.5461 45.5374 34.5308C45.5571 34.5308 45.5808 34.5232 45.6045 34.5193C45.6992 34.5079 45.7899 34.4964 45.8886 34.4964C45.9754 34.4964 46.0622 34.504 46.149 34.5155C46.1727 34.5155 46.1963 34.5232 46.22 34.527C46.2871 34.5385 46.3542 34.5499 46.4173 34.5691C46.437 34.5729 46.4568 34.5767 46.4725 34.5844C46.5515 34.6073 46.6304 34.6341 46.7093 34.6685C46.7211 34.6724 46.733 34.68 46.7487 34.6877C46.8119 34.7183 46.875 34.7489 46.9381 34.7833C46.9579 34.7948 46.9736 34.8024 46.9894 34.8139C47.0565 34.856 47.1236 34.8981 47.1828 34.9478C47.1828 34.9478 47.1867 34.9478 47.1907 34.9516C47.2577 35.0052 47.3209 35.0625 47.3761 35.1199C47.3879 35.1314 47.3958 35.1429 47.4077 35.1544C47.455 35.2079 47.5024 35.2615 47.5458 35.315C47.5537 35.3265 47.5616 35.338 47.5734 35.3494C47.6247 35.4183 47.6681 35.491 47.7115 35.5637C47.8654 35.8429 47.9522 36.1642 47.9522 36.5047C47.9522 37.4457 47.2775 38.2376 46.3699 38.4518L46.3621 38.448Z" fill="#1EE600"/>
</svg>
