<svg width="24" height="24" viewBox="0 0 24 24" fill="none" xmlns="http://www.w3.org/2000/svg">
<path d="M12 1.33337C9.89038 1.33337 7.82809 1.95896 6.07396 3.13103C4.31984 4.3031 2.95267 5.96901 2.14533 7.91808C1.338 9.86716 1.12676 12.0119 1.53834 14.081C1.94991 16.1501 2.96581 18.0508 4.45757 19.5425C5.94933 21.0343 7.84995 22.0502 9.91908 22.4618C11.9882 22.8733 14.1329 22.6621 16.082 21.8548C18.0311 21.0474 19.697 19.6802 20.8691 17.9261C22.0411 16.172 22.6667 14.1097 22.6667 12C22.6667 9.17106 21.5429 6.45796 19.5425 4.45757C17.5421 2.45718 14.829 1.33337 12 1.33337ZM18.9667 8.42004L10.2067 17.1734L5.03338 12C4.85657 11.8232 4.75724 11.5834 4.75724 11.3334C4.75724 11.0833 4.85657 10.8435 5.03338 10.6667C5.21019 10.4899 5.45 10.3906 5.70005 10.3906C5.95009 10.3906 6.1899 10.4899 6.36671 10.6667L10.22 14.52L17.6467 7.10004C17.7343 7.01249 17.8382 6.94305 17.9526 6.89567C18.067 6.84829 18.1896 6.8239 18.3134 6.8239C18.4372 6.8239 18.5598 6.84829 18.6742 6.89567C18.7886 6.94305 18.8925 7.01249 18.98 7.10004C19.0676 7.18759 19.137 7.29152 19.1844 7.40591C19.2318 7.5203 19.2562 7.6429 19.2562 7.76671C19.2562 7.89052 19.2318 8.01312 19.1844 8.12751C19.137 8.24189 19.0676 8.34583 18.98 8.43337L18.9667 8.42004Z" fill="#00F05E"/>
</svg>
